<svg width="274" height="13" viewBox="0 0 274 13" fill="none" xmlns="http://www.w3.org/2000/svg">
<path d="M2 2C78.0353 2.6574 97.0728 9.51077 173.559 10.1574C200.573 10.3858 228.297 10.5918 254.563 10.8423C259.785 10.8921 265.235 10.9577 271.092 10.9901C273.969 11.006 273.478 11.0022 270.388 10.9826C245.78 10.8265 222.967 10.562 201.459 10.3202C156.679 9.81678 114.996 9.24876 69.9303 8.75033C59.5916 8.63598 28.2136 8.30315 39.2168 8.40043C102.48 8.9597 140.039 9.42449 203.803 9.96658M203.803 9.96658C215.023 10.062 234.641 5.16348 245.603 5.26611C248 5.28855 217.172 10.0766 203.803 9.96658ZM203.803 9.96658C145.076 9.48324 147.748 9.49403 89.7416 8.98984C65.9517 8.78305 43.4431 8.53776 19.5227 8.33681C17.336 8.31844 15.3305 8.29643 13.1924 8.27693C2.90043 8.18306 34.2089 8.45226 44.492 8.54638C93.2119 8.9923 143.409 9.39016 191.846 9.84495C194.579 9.87062 201.746 9.91184 203.803 9.96658ZM203.803 9.96658C204.236 9.9781 202.175 9.95867 201.459 9.95161C190.672 9.84526 180.308 9.72606 169.808 9.61293C133.407 9.22075 95.8044 8.8623 59.1454 8.47714C49.7252 8.37817 40.1751 8.28091 31.0109 8.17589C30.0072 8.16439 29.1747 8.13834 27.963 8.14221C21.5411 8.16271 37.7994 8.2807 43.0853 8.34242C82.5275 8.80294 125.211 9.18989 164.884 9.64287C173.582 9.74218 182.224 9.89854 192.55 9.95348" stroke="#D7D7EB" stroke-width="3" stroke-linecap="round"/>
</svg>
