<svg width="38" height="24" viewBox="0 0 38 24" fill="none" xmlns="http://www.w3.org/2000/svg">
<path d="M23.8132 11.755C23.8132 17.8414 18.6949 22.7754 12.3811 22.7754C6.06734 22.7754 0.948975 17.8414 0.948975 11.755C0.948975 5.66863 6.06734 0.734619 12.3811 0.734619C18.6949 0.734619 23.8132 5.66863 23.8132 11.755Z" fill="#68DBFF"/>
<path d="M36.1421 11.755C36.1421 17.8414 31.0738 22.7754 24.822 22.7754C18.5701 22.7754 13.502 17.8414 13.502 11.755C13.502 5.66863 18.5701 0.734619 24.822 0.734619C31.0738 0.734619 36.1421 5.66863 36.1421 11.755Z" fill="#FF7917"/>
<path d="M18.6322 20.9836C21.7521 19.0158 23.8133 15.6175 23.8133 11.7551C23.8133 7.89275 21.7521 4.49442 18.6322 2.52661C15.5429 4.49442 13.502 7.89275 13.502 11.7551C13.502 15.6175 15.5429 19.0158 18.6322 20.9836Z" fill="#5D2C02"/>
</svg>
